<svg width="31" height="25" viewBox="0 0 31 25" fill="none" xmlns="http://www.w3.org/2000/svg">
<path d="M15.6016 8.73545C12.6062 8.73545 10.1801 11.1616 10.1801 14.157C10.1801 17.1524 12.6062 19.5785 15.6016 19.5785C18.597 19.5785 21.0232 17.1524 21.0232 14.157C21.0232 11.1616 18.597 8.73545 15.6016 8.73545ZM15.6016 17.4099C13.8057 17.4099 12.3487 15.9529 12.3487 14.157C12.3487 12.3611 13.8057 10.9041 15.6016 10.9041C17.3975 10.9041 18.8546 12.3611 18.8546 14.157C18.8546 15.9529 17.3975 17.4099 15.6016 17.4099Z" fill="#BE272D"/>
<path d="M27.529 4.12712H22.9207L21.8229 1.05039C21.747 0.839855 21.608 0.657872 21.4249 0.5293C21.2417 0.400727 21.0233 0.331834 20.7995 0.332032H10.4037C9.94627 0.332032 9.53627 0.620051 9.38378 1.05039L8.28253 4.12712H3.67421C2.17651 4.12712 0.96344 5.34019 0.96344 6.83789V22.2893C0.96344 23.787 2.17651 25.0001 3.67421 25.0001H27.529C29.0267 25.0001 30.2398 23.787 30.2398 22.2893V6.83789C30.2398 5.34019 29.0267 4.12712 27.529 4.12712ZM27.8001 22.2893C27.8001 22.4384 27.6781 22.5604 27.529 22.5604H3.67421C3.52512 22.5604 3.40314 22.4384 3.40314 22.2893V6.83789C3.40314 6.6888 3.52512 6.56681 3.67421 6.56681H10.0005L11.3559 2.77173H19.844L21.1994 6.56681H27.529C27.6781 6.56681 27.8001 6.6888 27.8001 6.83789V22.2893Z" fill="#BE272D"/>
</svg>
