<svg width="29" height="34" viewBox="0 0 29 34" fill="none" xmlns="http://www.w3.org/2000/svg">
<path d="M27.6881 8.96427H22.2238V8.32142C22.2238 4.23927 18.9131 0.928558 14.831 0.928558C10.7488 0.928558 7.43811 4.23927 7.43811 8.32142V8.96427H1.97382C1.26266 8.96427 0.68811 9.53883 0.68811 10.25V31.7857C0.68811 32.4969 1.26266 33.0714 1.97382 33.0714H27.6881C28.3993 33.0714 28.9738 32.4969 28.9738 31.7857V10.25C28.9738 9.53883 28.3993 8.96427 27.6881 8.96427ZM10.331 8.32142C10.331 5.83436 12.3439 3.82142 14.831 3.82142C17.318 3.82142 19.331 5.83436 19.331 8.32142V8.96427H10.331V8.32142ZM26.081 30.1786H14.831H3.58097V11.8571H7.43811V15.3928C7.43811 15.5696 7.58275 15.7143 7.75954 15.7143H10.0095C10.1863 15.7143 10.331 15.5696 10.331 15.3928V11.8571H19.331V15.3928C19.331 15.5696 19.4756 15.7143 19.6524 15.7143H21.9024C22.0792 15.7143 22.2238 15.5696 22.2238 15.3928V11.8571H26.081V30.1786Z" fill="black" fill-opacity="0.85"/>
</svg>
