<svg width="27" height="26" viewBox="0 0 27 26" fill="none" xmlns="http://www.w3.org/2000/svg">
<path d="M26.3349 0.100708H0.547827C0.353541 0.100708 0.19458 0.245825 0.19458 0.42319V2.68057C0.19458 2.85793 0.353541 3.00305 0.547827 3.00305H26.3349C26.5292 3.00305 26.6881 2.85793 26.6881 2.68057V0.42319C26.6881 0.245825 26.5292 0.100708 26.3349 0.100708ZM26.3349 11.5488H0.547827C0.353541 11.5488 0.19458 11.6939 0.19458 11.8713V14.1287C0.19458 14.3061 0.353541 14.4512 0.547827 14.4512H26.3349C26.5292 14.4512 26.6881 14.3061 26.6881 14.1287V11.8713C26.6881 11.6939 26.5292 11.5488 26.3349 11.5488ZM26.3349 22.997H0.547827C0.353541 22.997 0.19458 23.1421 0.19458 23.3194V25.5768C0.19458 25.7542 0.353541 25.8993 0.547827 25.8993H26.3349C26.5292 25.8993 26.6881 25.7542 26.6881 25.5768V23.3194C26.6881 23.1421 26.5292 22.997 26.3349 22.997Z" fill="black"/>
</svg>
