<svg width="36" height="37" viewBox="0 0 36 37" fill="none" xmlns="http://www.w3.org/2000/svg">
<path d="M34.5691 0.47168H1.65434C0.862779 0.47168 0.223267 1.11119 0.223267 1.90276V34.8175C0.223267 35.6091 0.862779 36.2486 1.65434 36.2486H34.5691C35.3607 36.2486 36.0002 35.6091 36.0002 34.8175V1.90276C36.0002 1.11119 35.3607 0.47168 34.5691 0.47168ZM33.1381 33.3865H24.9049V22.394H29.5559L30.2535 16.9962H24.9049V13.5482C24.9049 11.9829 25.3387 10.9185 27.5792 10.9185H30.4369V6.08866C29.9405 6.02158 28.2456 5.874 26.2689 5.874C22.1456 5.874 19.3237 8.3918 19.3237 13.0115V16.9917H14.6637V22.3895H19.3282V33.3865H3.08542V3.33384H33.1381V33.3865Z" fill="black"/>
</svg>
