<svg width="36" height="36" viewBox="0 0 36 36" fill="none" xmlns="http://www.w3.org/2000/svg">
<path d="M23.4381 17.7708L14.7897 11.5129C14.7477 11.4824 14.698 11.4642 14.6462 11.4601C14.5944 11.4561 14.5425 11.4665 14.4963 11.4902C14.4501 11.5138 14.4113 11.5498 14.3843 11.5942C14.3572 11.6386 14.343 11.6895 14.3432 11.7415V13.3903C14.3432 13.7489 14.5155 14.0899 14.8073 14.3008L19.919 17.9993L14.8073 21.6977C14.5155 21.9087 14.3432 22.2462 14.3432 22.6083V24.2571C14.3432 24.4856 14.6034 24.6192 14.7897 24.4856L23.4381 18.2278C23.5928 18.1153 23.5928 17.8833 23.4381 17.7708Z" fill="#BE272D"/>
<path d="M18 2.25C9.30234 2.25 2.25 9.30234 2.25 18C2.25 26.6977 9.30234 33.75 18 33.75C26.6977 33.75 33.75 26.6977 33.75 18C33.75 9.30234 26.6977 2.25 18 2.25ZM18 31.0781C10.7789 31.0781 4.92188 25.2211 4.92188 18C4.92188 10.7789 10.7789 4.92188 18 4.92188C25.2211 4.92188 31.0781 10.7789 31.0781 18C31.0781 25.2211 25.2211 31.0781 18 31.0781Z" fill="#BE272D"/>
</svg>
