<svg width="36" height="37" viewBox="0 0 36 37" fill="none" xmlns="http://www.w3.org/2000/svg">
<path d="M18.1066 9.40479C13.0273 9.40479 8.92803 13.504 8.92803 18.5833C8.92803 23.6626 13.0273 27.7618 18.1066 27.7618C23.1858 27.7618 27.2851 23.6626 27.2851 18.5833C27.2851 13.504 23.1858 9.40479 18.1066 9.40479ZM18.1066 24.5487C14.8218 24.5487 12.1412 21.8681 12.1412 18.5833C12.1412 15.2986 14.8218 12.6179 18.1066 12.6179C21.3913 12.6179 24.0719 15.2986 24.0719 18.5833C24.0719 21.8681 21.3913 24.5487 18.1066 24.5487ZM27.661 6.88976C26.4751 6.88976 25.5174 7.84744 25.5174 9.03335C25.5174 10.2193 26.4751 11.1769 27.661 11.1769C28.8469 11.1769 29.8046 10.2237 29.8046 9.03335C29.8049 8.75175 29.7497 8.47285 29.6421 8.21262C29.5345 7.95238 29.3766 7.71593 29.1775 7.51681C28.9784 7.31769 28.742 7.15981 28.4817 7.05221C28.2215 6.94461 27.9426 6.8894 27.661 6.88976ZM35.9982 18.5833C35.9982 16.113 36.0206 13.6651 35.8818 11.1993C35.7431 8.33523 35.0897 5.79335 32.9954 3.69898C30.8965 1.60013 28.3591 0.951239 25.495 0.812509C23.0247 0.67378 20.5768 0.696155 18.111 0.696155C15.6407 0.696155 13.1928 0.67378 10.727 0.812509C7.86294 0.951239 5.32106 1.60461 3.22669 3.69898C1.12784 5.79782 0.478949 8.33523 0.340219 11.1993C0.201489 13.6696 0.223865 16.1175 0.223865 18.5833C0.223865 21.0491 0.201489 23.5015 0.340219 25.9673C0.478949 28.8314 1.13232 31.3733 3.22669 33.4676C5.32553 35.5665 7.86294 36.2154 10.727 36.3541C13.1973 36.4928 15.6452 36.4705 18.111 36.4705C20.5813 36.4705 23.0292 36.4928 25.495 36.3541C28.3591 36.2154 30.901 35.562 32.9954 33.4676C35.0942 31.3688 35.7431 28.8314 35.8818 25.9673C36.025 23.5015 35.9982 21.0536 35.9982 18.5833ZM32.0601 29.1357C31.7334 29.9502 31.3396 30.5588 30.7086 31.1853C30.0776 31.8163 29.4734 32.2101 28.6589 32.5368C26.305 33.4721 20.7156 33.2618 18.1066 33.2618C15.4975 33.2618 9.90361 33.4721 7.54968 32.5413C6.7352 32.2146 6.12658 31.8208 5.50006 31.1898C4.86907 30.5588 4.47526 29.9547 4.14857 29.1402C3.21774 26.7818 3.42807 21.1923 3.42807 18.5833C3.42807 15.9743 3.21774 10.3804 4.14857 8.02644C4.47526 7.21197 4.86907 6.60335 5.50006 5.97683C6.13106 5.35031 6.7352 4.95202 7.54968 4.62533C9.90361 3.6945 15.4975 3.90483 18.1066 3.90483C20.7156 3.90483 26.3095 3.6945 28.6634 4.62533C29.4779 4.95202 30.0865 5.34583 30.713 5.97683C31.344 6.60782 31.7378 7.21197 32.0645 8.02644C32.9954 10.3804 32.785 15.9743 32.785 18.5833C32.785 21.1923 32.9954 26.7818 32.0601 29.1357Z" fill="black"/>
</svg>
