<svg width="18" height="18" viewBox="0 0 18 18" fill="none" xmlns="http://www.w3.org/2000/svg">
<path d="M17.8367 16.5835L12.1399 10.8757C13.0239 9.73066 13.5021 8.33065 13.5021 6.85811C13.5021 5.09546 12.8155 3.4427 11.574 2.19653C10.3324 0.950368 8.67845 0.264648 6.92139 0.264648C5.16433 0.264648 3.51036 0.952566 2.2688 2.19653C1.02503 3.4405 0.340637 5.09546 0.340637 6.85811C0.340637 8.61856 1.02723 10.2757 2.2688 11.5197C3.51036 12.7658 5.16213 13.4516 6.92139 13.4516C8.39109 13.4516 9.78621 12.9724 10.9291 12.0889L16.6258 17.7945C16.6425 17.8112 16.6623 17.8245 16.6842 17.8336C16.706 17.8426 16.7294 17.8473 16.753 17.8473C16.7767 17.8473 16.8001 17.8426 16.8219 17.8336C16.8437 17.8245 16.8636 17.8112 16.8803 17.7945L17.8367 16.8384C17.8534 16.8217 17.8666 16.8018 17.8757 16.7799C17.8847 16.7581 17.8894 16.7346 17.8894 16.7109C17.8894 16.6873 17.8847 16.6638 17.8757 16.6419C17.8666 16.6201 17.8534 16.6002 17.8367 16.5835ZM10.396 10.3395C9.46594 11.2691 8.23315 11.7812 6.92139 11.7812C5.60962 11.7812 4.37683 11.2691 3.44675 10.3395C2.51887 9.40758 2.00776 8.1724 2.00776 6.85811C2.00776 5.54381 2.51887 4.30644 3.44675 3.37676C4.37683 2.44708 5.60962 1.93499 6.92139 1.93499C8.23315 1.93499 9.46814 2.44489 10.396 3.37676C11.3239 4.30864 11.835 5.54381 11.835 6.85811C11.835 8.1724 11.3239 9.40978 10.396 10.3395Z" fill="#BE272D"/>
</svg>
