<svg width="33" height="26" viewBox="0 0 33 26" fill="none" xmlns="http://www.w3.org/2000/svg">
<path d="M21.6002 20.637H27.4009C27.5556 20.637 27.6822 20.5104 27.6822 20.3557V17.8245C27.6822 17.6698 27.5556 17.5432 27.4009 17.5432H21.6002C21.4455 17.5432 21.3189 17.6698 21.3189 17.8245V20.3557C21.3189 20.5104 21.4455 20.637 21.6002 20.637Z" fill="#BE272D"/>
<path d="M31.3384 0.668213H2.08844C1.46617 0.668213 0.96344 1.17095 0.96344 1.79321V24.2932C0.96344 24.9155 1.46617 25.4182 2.08844 25.4182H31.3384C31.9607 25.4182 32.4634 24.9155 32.4634 24.2932V1.79321C32.4634 1.17095 31.9607 0.668213 31.3384 0.668213ZM29.9322 22.887H3.49469V10.512H29.9322V22.887ZM29.9322 7.41821H3.49469V3.19946H29.9322V7.41821Z" fill="#BE272D"/>
</svg>
