<svg width="91" height="70" viewBox="0 0 91 70" fill="none" xmlns="http://www.w3.org/2000/svg">
<path d="M71.9022 0.374268H3.60755C2.15465 0.374268 0.980835 1.50079 0.980835 2.89516V53.3131C0.980835 54.7075 2.15465 55.834 3.60755 55.834H71.9022C73.3551 55.834 74.5289 54.7075 74.5289 53.3131V2.89516C74.5289 1.50079 73.3551 0.374268 71.9022 0.374268ZM68.6188 50.162H6.89095V47.0187L18.2597 34.0755L30.5807 48.098L49.7475 26.2922L68.6188 47.7671V50.162ZM68.6188 39.9366L50.2482 19.0289C49.9855 18.7295 49.5094 18.7295 49.2468 19.0289L30.5807 40.2675L18.7604 26.8201C18.4978 26.5207 18.0217 26.5207 17.759 26.8201L6.89095 39.1882V6.04629H68.6188V39.9366ZM20.6812 23.6926C21.6298 23.6926 22.5691 23.5132 23.4455 23.1649C24.3219 22.8165 25.1182 22.3058 25.789 21.6621C26.4597 21.0184 26.9918 20.2541 27.3548 19.413C27.7178 18.572 27.9047 17.6705 27.9047 16.7601C27.9047 15.8497 27.7178 14.9482 27.3548 14.1072C26.9918 13.2661 26.4597 12.5018 25.789 11.8581C25.1182 11.2144 24.3219 10.7037 23.4455 10.3553C22.5691 10.0069 21.6298 9.82763 20.6812 9.82763C18.7654 9.82763 16.9281 10.558 15.5734 11.8581C14.2188 13.1582 13.4577 14.9215 13.4577 16.7601C13.4577 18.5987 14.2188 20.362 15.5734 21.6621C16.9281 22.9622 18.7654 23.6926 20.6812 23.6926ZM20.6812 14.5543C21.9535 14.5543 22.9796 15.539 22.9796 16.7601C22.9796 17.9812 21.9535 18.9659 20.6812 18.9659C19.4089 18.9659 18.3828 17.9812 18.3828 16.7601C18.3828 15.539 19.4089 14.5543 20.6812 14.5543Z" fill="#BE272D"/>
<path d="M69.9636 32.6006C60.7508 32.6006 53.2783 40.0731 53.2783 49.2859C53.2783 58.4987 60.7508 65.9712 69.9636 65.9712C79.1764 65.9712 86.6489 58.4987 86.6489 49.2859C86.6489 40.0731 79.1764 32.6006 69.9636 32.6006ZM77.9474 54.0851H75.8438C75.3863 54.0851 74.9513 53.8654 74.6821 53.4931L69.9636 46.9715L65.2451 53.4931C64.976 53.8654 64.5454 54.0851 64.0834 54.0851H61.9798C61.6882 54.0851 61.5178 53.7532 61.6882 53.5155L69.6721 42.4817C69.8156 42.2843 70.1071 42.2843 70.2507 42.4817L78.2345 53.5155C78.4094 53.7532 78.239 54.0851 77.9474 54.0851Z" fill="white"/>
<path d="M69.9636 29.1917C58.867 29.1917 49.8695 38.1891 49.8695 49.2858C49.8695 60.3824 58.867 69.3799 69.9636 69.3799C81.0602 69.3799 90.0577 60.3824 90.0577 49.2858C90.0577 38.1891 81.0602 29.1917 69.9636 29.1917ZM69.9636 65.9711C60.7508 65.9711 53.2783 58.4986 53.2783 49.2858C53.2783 40.073 60.7508 32.6005 69.9636 32.6005C79.1764 32.6005 86.6489 40.073 86.6489 49.2858C86.6489 58.4986 79.1764 65.9711 69.9636 65.9711Z" fill="#BE272D"/>
<path d="M70.2507 42.4816C70.2177 42.4357 70.1742 42.3984 70.1239 42.3726C70.0736 42.3469 70.018 42.3335 69.9614 42.3335C69.9049 42.3335 69.8492 42.3469 69.7989 42.3726C69.7486 42.3984 69.7052 42.4357 69.6721 42.4816L61.6883 53.5154C61.5179 53.7531 61.6883 54.085 61.9798 54.085H64.0835C64.5454 54.085 64.976 53.8653 65.2451 53.493L69.9637 46.9714L74.6822 53.493C74.9513 53.8653 75.3864 54.085 75.8439 54.085H77.9475C78.2391 54.085 78.4095 53.7531 78.2346 53.5154L70.2507 42.4816Z" fill="#BE272D"/>
</svg>
