<svg width="28" height="25" viewBox="0 0 28 25" fill="none" xmlns="http://www.w3.org/2000/svg">
<path d="M26.697 4.9367V0.986722C26.697 0.440942 26.2191 0 25.6276 0H3.03551C2.44398 0 1.96607 0.440942 1.96607 0.986722V4.9367C1.40795 4.96753 0.963461 5.39614 0.963461 5.92033V9.98131C0.96132 10.7277 1.12511 11.4665 1.44471 12.1521C1.58842 12.4666 1.76555 12.7626 1.96607 13.0432V23.6813C1.96607 24.224 2.44398 24.6681 3.03551 24.6681H25.6276C26.2191 24.6681 26.697 24.2271 26.697 23.6813V13.0432C26.9007 12.7619 27.0753 12.4636 27.2184 12.1521C27.5359 11.4645 27.6996 10.7337 27.6996 9.98131V5.92033C27.6996 5.39614 27.2551 4.96753 26.697 4.9367ZM4.37232 2.22013H24.2908V4.93361H4.37232V2.22013ZM16.4704 22.451H12.1927V19.2411H16.4704V22.451ZM24.2908 22.451H18.6093V18.2544C18.6093 17.7086 18.1314 17.2676 17.5399 17.2676H11.1232C10.5317 17.2676 10.0538 17.7086 10.0538 18.2544V22.451H4.37232V14.9828C4.46924 15.0259 4.5695 15.0691 4.6731 15.1061C5.41838 15.396 6.21043 15.5409 7.02589 15.5409C7.84134 15.5409 8.63006 15.396 9.37867 15.1061C9.83987 14.9273 10.2743 14.6991 10.672 14.4246C10.6787 14.4216 10.6854 14.4216 10.6921 14.4246C11.091 14.7002 11.5255 14.9291 11.9854 15.1061C12.7307 15.396 13.5228 15.5409 14.3382 15.5409C15.1537 15.5409 15.9424 15.396 16.691 15.1061C17.1522 14.9273 17.5867 14.6991 17.9844 14.4246C17.9911 14.4216 17.9977 14.4216 18.0044 14.4246C18.4034 14.7002 18.8378 14.9291 19.2978 15.1061C20.0431 15.396 20.8351 15.5409 21.6506 15.5409C22.466 15.5409 23.2547 15.396 24.0034 15.1061C24.1036 15.066 24.2039 15.0259 24.3041 14.9828V22.451H24.2908ZM25.2934 9.98131C25.2934 11.8253 23.6558 13.3208 21.6405 13.3208C20.277 13.3208 19.0872 12.6393 18.4589 11.6279C18.362 11.4737 18.1882 11.3781 17.9944 11.3781H17.9743C17.7839 11.3781 17.6067 11.4737 17.5098 11.6279C17.1892 12.1438 16.7262 12.5722 16.168 12.8696C15.6097 13.1669 14.9761 13.3226 14.3315 13.3208C12.9713 13.3208 11.7849 12.6424 11.1566 11.6341C11.0564 11.4768 10.8759 11.3781 10.6787 11.3781C10.4815 11.3781 10.2977 11.4768 10.2008 11.6341C9.8783 12.148 9.41475 12.5745 8.8568 12.8706C8.29885 13.1667 7.6662 13.322 7.02255 13.3208C5.00731 13.3208 3.36972 11.8253 3.36972 9.98131V7.16915C3.36972 7.1599 3.3764 7.15374 3.38643 7.15374H25.2767C25.2867 7.15374 25.2934 7.1599 25.2934 7.16915V9.98131Z" fill="#BE272D"/>
</svg>
