<svg width="36" height="37" viewBox="0 0 36 37" fill="none" xmlns="http://www.w3.org/2000/svg">
<path d="M26.0961 21.7705C25.6582 21.5455 23.4765 20.4767 23.0707 20.3321C22.6649 20.1794 22.3675 20.1071 22.0742 20.5571C21.7769 21.0031 20.9332 21.9955 20.668 22.2968C20.4108 22.5941 20.1497 22.6303 19.7117 22.4093C17.1082 21.1075 15.4006 20.087 13.6849 17.1419C13.2309 16.3584 14.139 16.4147 14.9867 14.7231C15.1314 14.4258 15.0591 14.1727 14.9466 13.9477C14.8341 13.7227 13.9501 11.545 13.5805 10.6571C13.2229 9.79323 12.8533 9.91377 12.5841 9.8977C12.3269 9.88163 12.0336 9.88163 11.7363 9.88163C11.439 9.88163 10.9608 9.99413 10.555 10.4321C10.1492 10.8781 9.00415 11.9508 9.00415 14.1285C9.00415 16.3062 10.5912 18.4156 10.8082 18.7129C11.0332 19.0102 13.93 23.4781 18.3778 25.4026C21.1903 26.616 22.2912 26.7205 23.6975 26.5115C24.5533 26.383 26.3171 25.4428 26.6827 24.4022C27.0483 23.3656 27.0483 22.4776 26.9399 22.2928C26.8314 22.0959 26.5341 21.9834 26.0961 21.7705Z" fill="black" fill-opacity="0.85"/>
<path d="M34.6018 11.2735C33.6937 9.11595 32.392 7.17934 30.7326 5.51595C29.0848 3.86218 27.1287 2.54764 24.975 1.64675C22.7652 0.718625 20.4187 0.248535 18 0.248535H17.9196C15.4848 0.260589 13.1263 0.742732 10.9085 1.69095C8.77321 2.60108 6.83542 3.91795 5.20311 5.56818C3.55981 7.22755 2.27007 9.15613 1.37811 11.3057C0.454002 13.5316 -0.0120698 15.8981 -1.61967e-05 18.3329C0.0136174 21.1232 0.673746 23.8724 1.92856 26.3646V32.4717C1.92856 32.9619 2.12328 33.432 2.46988 33.7786C2.81649 34.1252 3.28659 34.32 3.77677 34.32H9.88793C12.3802 35.5748 15.1293 36.2349 17.9196 36.2485H18.004C20.4107 36.2485 22.7451 35.7825 24.9428 34.8704C27.0857 33.9803 29.0345 32.681 30.6803 31.0454C32.3397 29.4021 33.6455 27.4816 34.5576 25.3401C35.5058 23.1222 35.9879 20.7637 36 18.3289C36.012 15.882 35.5379 13.5075 34.6018 11.2735ZM28.5308 28.8717C25.7143 31.6601 21.9777 33.195 18 33.195H17.9317C15.5089 33.1829 13.1022 32.5802 10.9768 31.4472L10.6393 31.2664H4.98213V25.6092L4.80132 25.2717C3.66829 23.1463 3.06561 20.7396 3.05356 18.3168C3.03748 14.311 4.56829 10.5503 7.37677 7.71773C10.1812 4.88514 13.9299 3.31818 17.9357 3.30211H18.004C20.0129 3.30211 21.9616 3.69184 23.7978 4.46327C25.5897 5.21461 27.1969 6.29541 28.579 7.67755C29.9571 9.05568 31.042 10.6668 31.7933 12.4588C32.5728 14.3151 32.9625 16.2838 32.9545 18.3168C32.9303 22.3186 31.3594 26.0673 28.5308 28.8717Z" fill="black" fill-opacity="0.85"/>
</svg>
