<?xml version="1.0" encoding="UTF-8"?><svg id="Capa_1" xmlns="http://www.w3.org/2000/svg" viewBox="0 0 1584 732"><defs><style>.cls-1{fill:#be272d;}</style></defs><path class="cls-1" d="m393.45,356.32c-9.63-39.78-45.8-68.35-87.12-68.35s-76.8,27.49-86.85,67.25c-45.54,4.5-80.76,43.09-80.76,89.22,0,43.32,32.15,81.3,74.82,88.43,3.03.81,6.14,1.23,9.27,1.23h150.32c.58,0,1.16-.02,1.34-.05.79.03,1.58.05,2.38.05,49.44,0,89.66-40.22,89.66-89.66,0-42.87-31.21-80.23-73.06-88.12Zm-87.12-28.23c26.7,0,48.44,20.89,49.48,47.56l.76,19.54,19.62-.26.74-.03c27.27.04,49.46,22.26,49.46,49.54s-22.22,49.54-49.53,49.54l-2.91-.09-1,.09h-149.42s-2.59-.56-2.59-.56c-23.99-3.6-42.08-24.66-42.08-48.97,0-27.31,22.22-49.54,49.53-49.54,1.93,0,3.89.13,6.01.38l21.75,2.62.7-21.9c.86-26.87,22.59-47.92,49.49-47.92Z"/><path class="cls-1" d="m460.43,177.88h-28.97c-.16-1.52-.26-2.43-.27-2.58-5.44-67.56-60.66-120.52-129.48-122.26-35.67-.87-69.42,12.11-95.23,36.64-24.17,22.97-38.59,53.47-41.07,86.49l-.4,1.18c-.06.13-.12.33-.18.53h-28.11c-44.57,0-80.71,36.13-80.71,80.71v323.7c0,44.57,36.14,80.71,80.71,80.71h323.7c44.58,0,80.71-36.14,80.71-80.71v-323.7c0-44.58-36.13-80.71-80.71-80.71Zm-245.09-.7c0-.17.01-.34.04-.5,2.22-19.42,11.07-37.28,25.41-50.91,16.17-15.37,37.44-23.45,59.66-22.96,42.17,1.07,76.2,32.83,80.86,73.81.02.2.03.41.03.62v.65h-166.02l.02-.7Zm-72.21,430.66c-25.66,0-38.26-24.76-38.26-49.69,0-2.56,1.09-299.55,1.09-299.55,0-16.99,13.78-30.77,30.77-30.77h323.7c16.99,0,30.77,13.78,30.77,30.77v293.25c-.76-.57,4.14,55.85-36.89,55.85"/><path class="cls-1" d="m734.45,349.05c-41.51,0-67.83-9.11-67.83-35.44,0-4.3,3.29-7.59,7.59-7.59h18.48c6.33,0,10.88,2.53,14.17,6.58,4.3,5.32,13.67,8.35,24.55,8.35,21.26,0,28.35-4.81,28.35-11.9,0-21.01-93.4-9.36-93.4-60.49,0-28.6,28.6-39.99,64.29-39.99,41.51,0,67.83,9.11,67.83,35.44,0,4.3-3.29,7.59-7.59,7.59h-18.48c-6.33,0-10.88-2.53-14.18-6.58-4.3-5.32-13.67-8.35-24.55-8.35-17.46,0-24.55,4.81-24.55,11.9,0,21.01,93.4,8.86,93.4,60.49,0,28.6-28.6,39.99-68.09,39.99Z"/><path class="cls-1" d="m868.1,289.57c0,21.01,9.62,29.61,23.54,29.61,12.4,0,24.05-8.61,33.16-17.72v-82.77c0-4.3,3.29-7.6,7.59-7.6h27.59c4.3,0,7.59,3.29,7.59,7.6v120.23c0,4.3-3.29,7.59-7.59,7.59h-27.59c-4.3,0-7.59-3.29-7.59-7.59v-7.85c-11.64,9.87-24.3,17.97-43.28,17.97-32.9,0-56.19-17.47-56.19-59.48v-70.87c0-4.3,3.29-7.6,7.59-7.6h27.59c4.3,0,7.59,3.29,7.59,7.6v70.87Z"/><path class="cls-1" d="m997.95,176.94c0-4.3,3.29-7.59,7.59-7.59h27.59c4.3,0,7.59,3.29,7.59,7.59v37.97c10.38-3.29,20.5-6.33,35.69-6.33,39.49,0,66.31,23.79,66.31,70.37s-26.58,70.11-78.46,70.11c-24.05,0-53.15-6.33-66.32-13.92v-158.2Zm42.78,139.46c5.82,1.52,15.69,2.79,26.07,2.79,23.54,0,31.89-12.4,31.89-40.24s-8.35-40.5-31.13-40.5c-6.33,0-16.45,1.77-26.83,5.06v72.9Z"/><path class="cls-1" d="m1201.46,291.85c1.77,20.25,10.89,29.11,31.64,29.11,10.63,0,20-3.04,24.3-8.35,3.29-4.05,7.85-6.58,14.17-6.58h18.48c4.3,0,7.6,3.29,7.6,7.59,0,26.32-27.08,35.44-67.58,35.44-45.05,0-72.14-24.3-72.14-70.11s27.34-70.37,72.14-70.37,72.14,24.05,72.14,68.59v7.09c0,4.3-3.29,7.6-7.6,7.6h-93.15Zm-.25-26.07h57.46c-.76-18.98-9.87-29.11-28.6-29.11s-27.84,10.13-28.86,29.11Z"/><path class="cls-1" d="m1332.58,346.52c-4.3,0-7.59-3.29-7.59-7.59v-161.99c0-4.3,3.29-7.59,7.59-7.59h27.59c4.3,0,7.59,3.29,7.59,7.59v161.99c0,4.3-3.29,7.59-7.59,7.59h-27.59Z"/><path class="cls-1" d="m1539.88,278.69c0,46.57-26.83,70.37-74.67,70.37s-74.67-23.79-74.67-70.37,26.83-70.11,74.67-70.11,74.67,23.54,74.67,70.11Zm-42.78,0c0-29.87-10.38-42.02-31.89-42.02s-31.89,12.15-31.89,42.02,10.38,42.27,31.89,42.27,31.89-12.4,31.89-42.27Z"/><path class="cls-1" d="m727.11,631.96c-35.44,0-53.15-17.72-53.15-55.68v-116.43c0-4.3,3.29-7.59,7.59-7.59h27.59c4.3,0,7.59,3.29,7.59,7.59v41.26h34.42c4.3,0,7.59,3.29,7.59,7.59v14.68c0,4.3-3.29,7.59-7.59,7.59h-34.42v45.31c0,17.21,8.86,26.32,21.77,26.32,6.58,0,11.39-1.52,16.96-1.52h4.56c4.3,0,7.59,3.29,7.59,7.6v13.16c0,3.8-3.29,6.84-7.59,7.59-7.59,1.52-21.52,2.53-32.9,2.53Z"/><path class="cls-1" d="m927.08,561.59c0,46.58-26.83,70.37-74.67,70.37s-74.67-23.79-74.67-70.37,26.83-70.11,74.67-70.11,74.67,23.54,74.67,70.11Zm-42.78,0c0-29.87-10.38-42.01-31.89-42.01s-31.89,12.15-31.89,42.01,10.38,42.27,31.89,42.27,31.89-12.4,31.89-42.27Z"/><path class="cls-1" d="m942.27,561.84c0-46.57,26.83-70.36,66.32-70.36,15.19,0,25.31,3.03,35.69,6.32v-37.97c0-4.3,3.29-7.59,7.59-7.59h27.59c4.3,0,7.59,3.29,7.59,7.59v161.99c0,4.3-3.29,7.59-7.59,7.59h-23.79c-4.3,0-7.59-3.29-7.59-7.59v-3.8c-11.39,8.1-25.31,13.92-43.28,13.92-35.94,0-62.52-23.79-62.52-70.11Zm102,29.11v-64.55c-10.38-3.29-20.5-5.06-26.83-5.06-22.78,0-31.13,12.4-31.13,40.5s8.35,40.24,28.6,40.24c9.11,0,20.5-5.57,29.36-11.13Z"/><path class="cls-1" d="m1259.17,561.59c0,46.58-26.83,70.37-74.67,70.37s-74.67-23.79-74.67-70.37,26.83-70.11,74.67-70.11,74.67,23.54,74.67,70.11Zm-42.78,0c0-29.87-10.38-42.01-31.89-42.01s-31.89,12.15-31.89,42.01,10.38,42.27,31.89,42.27,31.89-12.4,31.89-42.27Z"/><path class="cls-1" d="m912.92,201.11c-2.56,6.21-8.56,11.98-16.48,11.98h-4.07c-8.99,0-11.35-4.71-9.63-14.13l6.21-33.61c1.29-6.64,8.99-11.99,15.85-11.99h8.56c11.14,0,16.06,6.21,11.99,16.27l-12.42,31.47Z"/></svg>