<svg width="27" height="25" viewBox="0 0 27 25" fill="none" xmlns="http://www.w3.org/2000/svg">
<path d="M26.9936 12.2398C26.9915 11.775 26.9438 11.3086 26.889 10.8458C26.8274 10.3243 26.57 9.86628 26.239 9.46664C26.0262 9.20961 25.9991 8.95971 26.011 8.6599C26.0323 8.12509 26.0194 7.58867 26.0201 7.05322C26.0218 5.83419 26.0208 4.61484 26.0262 3.39582C26.0279 3.01659 25.9619 2.65196 25.8225 2.29834C25.8049 2.25069 25.7877 2.20337 25.7701 2.15572C25.6286 1.94634 25.5024 1.72529 25.3414 1.53081C25.2118 1.37426 24.8863 1.1114 24.8863 1.1114L24.4217 0.827792C24.3064 0.786953 24.0756 0.705598 24.0756 0.705598L23.6885 0.604472C23.651 0.601879 23.6137 0.59961 23.5762 0.597017C23.3799 0.609334 3.37136 0.562012 3.37136 0.562012L3.35275 0.565577C3.08241 0.650821 2.80293 0.71597 2.54409 0.826172C2.15126 0.993743 1.82982 1.2579 1.57436 1.5924C1.54797 1.63032 1.52158 1.66824 1.49519 1.70617C1.4847 1.70681 1.47455 1.70779 1.4644 1.70908C1.21029 2.09803 1.02115 2.51518 0.965663 2.97122C0.93149 3.25061 0.955851 3.53714 0.959573 3.82042C0.963295 4.11537 0.979874 4.41 0.980889 4.70495C0.984949 6.04131 0.984949 7.37767 0.987318 8.71403C0.987318 8.7607 0.650317 9.64231 0.37016 10.3674C0.125868 10.9984 0.00169177 11.6668 0.00169177 12.3406C0.00169177 12.3442 0.00169177 12.3474 0.00169177 12.351C0.00135342 14.8114 0.000676709 17.2715 0 19.7319C0 19.8972 0 20.0629 0.000338354 20.2282C0.010489 20.2415 0.020978 20.2547 0.0311286 20.2677C0.0636106 20.5951 0.250044 20.856 0.42362 21.1224C0.488922 21.1856 0.59009 21.2832 0.655392 21.3464C0.833705 21.4556 1.01202 21.5652 1.19033 21.6744C1.24176 21.687 1.29319 21.6997 1.34462 21.7123C1.38387 21.7224 1.42346 21.7324 1.46271 21.7421C1.48774 21.7444 1.51278 21.7467 1.53748 21.7489C1.61463 21.7613 1.69177 21.7739 1.76892 21.7862C1.8129 21.7843 1.85689 21.7823 1.91678 21.7797V22.9262C1.92084 22.9501 1.9249 22.9738 1.92896 22.9978C1.99494 23.189 2.06092 23.3803 2.1269 23.5715L2.18408 23.6658C2.36882 23.8626 2.55322 24.059 2.73796 24.2557L2.80496 24.3027C2.9359 24.3604 3.06684 24.4181 3.19779 24.4758C3.22215 24.4787 3.24651 24.4816 3.27087 24.4845C3.40046 24.5092 3.53005 24.5341 3.65964 24.5588C4.40571 24.5594 5.15178 24.5604 5.89785 24.561L6.35429 24.4816C6.42095 24.4576 6.48761 24.4333 6.55392 24.4093L6.62599 24.3799C6.66558 24.3617 6.70517 24.3436 6.74476 24.3254C6.95995 24.1293 7.15924 23.9475 7.37443 23.7517C7.38898 23.7261 7.40353 23.7005 7.41808 23.6749C7.67218 23.3125 7.69688 22.8976 7.71076 22.4818C7.71786 22.2714 7.71313 22.0608 7.7138 21.8501L7.75643 21.805C7.82715 21.7985 7.89787 21.7885 7.96858 21.7885C11.6905 21.7865 15.4124 21.7856 19.1339 21.7852C19.183 21.7852 19.2321 21.7934 19.2943 21.7989C19.2943 22.0565 19.2882 22.3019 19.296 22.5469C19.3028 22.7592 19.2919 22.9793 19.3468 23.1816C19.5555 23.9514 20.236 24.5296 21.1042 24.5481C21.9162 24.5653 22.7347 24.5802 23.5403 24.5008C24.1629 24.4395 24.6396 24.0476 24.8795 23.4885C25.0118 23.1803 25.0311 22.8234 25.0724 22.485C25.1005 22.2556 25.0778 22.0206 25.0778 21.7859C25.5603 21.7519 25.9795 21.6037 26.3493 21.3325C26.6055 21.0903 26.8102 20.8171 26.9127 20.482C26.9229 20.4486 26.9249 20.4126 26.931 20.3779C26.9404 20.3649 26.9503 20.3523 26.9597 20.3393C26.9726 19.9977 26.9963 19.6561 26.9966 19.3148C27 16.9565 27.0041 14.5982 26.9936 12.2402V12.2398ZM2.85909 4.09819C2.8618 3.10508 3.70769 2.30417 4.74407 2.3126C9.14978 2.34825 19.9822 2.43577 22.8 2.45165C23.542 2.45586 24.1409 3.03345 24.1399 3.74457C24.1382 4.83784 24.1341 7.9371 24.1341 7.9371L22.2969 7.93257C22.2542 7.89399 22.2265 7.86936 22.1839 7.83079C22.1778 7.73615 22.1697 7.6415 22.169 7.54686C22.1615 6.72197 22.1568 5.8974 22.1497 5.0725C22.1463 4.70074 21.7636 4.30077 21.3596 4.25993C21.1312 4.23692 20.9005 4.23173 20.6707 4.23141C19.4594 4.22946 16.7364 4.23594 15.343 4.23951C14.868 4.24081 14.4826 4.60771 14.4785 5.06278L14.4521 7.93678C14.4521 7.93678 12.9651 7.94456 12.4897 7.94002L12.4907 5.09455C12.4907 4.60674 12.0765 4.21228 11.5673 4.21552C10.9126 4.22006 7.2374 4.23303 5.62954 4.23886C5.211 4.24048 4.87129 4.56234 4.8652 4.96328C4.85132 5.85429 4.83035 7.32419 4.83035 7.91539C4.74813 7.92381 2.84658 7.93645 2.84658 7.93645C2.84861 7.81199 2.85503 5.70065 2.85943 4.09754L2.85909 4.09819ZM20.4407 5.92754V7.9371H16.1774V5.92754H20.4407ZM10.8314 5.92754V7.9371H6.56813V5.92754H10.8314ZM5.59232 23.1709H4.0254C3.72934 23.1709 3.48945 22.9411 3.48945 22.6575V22.1288C3.48945 21.8452 3.72934 21.6154 4.0254 21.6154H5.59232C5.88838 21.6154 6.12827 21.8452 6.12827 22.1288V22.6575C6.12827 22.9411 5.88838 23.1709 5.59232 23.1709ZM23.1082 23.0088H21.3935C21.2409 23.0088 21.1174 22.8905 21.1174 22.7443V21.912C21.1174 21.7658 21.2409 21.6475 21.3935 21.6475H23.1082C23.2608 21.6475 23.3843 21.7658 23.3843 21.912V22.7443C23.3843 22.8905 23.2608 23.0088 23.1082 23.0088ZM25.1776 18.6169C25.1776 19.2166 24.6701 19.7028 24.0441 19.7028H3.06617C2.44021 19.7028 1.93268 19.2166 1.93268 18.6169C1.93268 18.0173 2.44021 17.5311 3.06617 17.5311H24.0441C24.6701 17.5311 25.1776 18.0173 25.1776 18.6169ZM25.1776 14.2818C25.1776 15.2351 24.371 16.0078 23.3759 16.0078H3.73442C2.73932 16.0078 1.93268 15.2351 1.93268 14.2818V11.7371C1.93268 10.7839 2.73932 10.0112 3.73442 10.0112H23.3762C24.3713 10.0112 25.178 10.7839 25.178 11.7371V14.2818H25.1776Z" fill="#BE272D"/>
</svg>
