<svg width="29" height="24" viewBox="0 0 29 24" fill="none" xmlns="http://www.w3.org/2000/svg">
<path d="M27.8332 0.0324707H1.03086C0.460665 0.0324707 0 0.493135 0 1.06333V17.0416C0 17.6118 0.460665 18.0725 1.03086 18.0725H13.2723V21.6805H7.73143C7.44795 21.6805 7.216 21.9124 7.216 22.1959V23.7422C7.216 23.8839 7.33198 23.9999 7.47372 23.9999H21.3903C21.532 23.9999 21.648 23.8839 21.648 23.7422V22.1959C21.648 21.9124 21.4161 21.6805 21.1326 21.6805H15.5917V18.0725H27.8332C28.4034 18.0725 28.864 17.6118 28.864 17.0416V1.06333C28.864 0.493135 28.4034 0.0324707 27.8332 0.0324707ZM26.5446 15.7531H2.31943V2.3519H26.5446V15.7531Z" fill="#BE272D"/>
</svg>
